# Blender 4.4.0
# www.blender.org
mtllib player.mtl
o player
v -1.255410 0.000000 0.185894
v -1.080410 -0.175000 -0.362702
v -1.430410 0.175000 -0.362702
v -1.080410 0.175000 -0.362702
v -1.430410 -0.175000 -0.362702
v -1.430410 -0.175000 -0.911298
v -1.255410 0.000000 -1.459894
v -1.080410 -0.175000 -0.911298
v -1.430410 0.175000 -0.911298
v -1.080410 0.175000 -0.911298
v 0.000000 0.000000 1.939718
v -0.350000 -0.350000 0.357394
v 0.350000 0.350000 0.357394
v -0.350000 0.350000 0.357394
v 0.350000 -0.350000 0.357394
v 0.350000 -0.116667 0.357394
v 0.350000 -0.350000 -0.442657
v 0.350000 -0.350000 -0.833794
v 0.350000 -0.116667 -0.442657
v 0.350000 0.116667 -0.442657
v 0.350000 -0.116667 -0.833794
v 1.081338 -0.116667 -0.442657
v 1.081338 0.116667 -0.442657
v 1.081338 -0.116667 -0.833794
v 1.081338 0.116667 -0.833794
v 0.350000 0.116667 -0.833794
v 0.350000 0.350000 -0.833794
v 0.350000 0.350000 -1.224931
v 0.350000 0.350000 -0.442657
v -0.350000 0.350000 -1.224931
v 0.350000 0.116667 -1.224931
v 0.350000 -0.116667 -1.224931
v 0.350000 -0.350000 -1.224931
v -0.350000 -0.350000 -1.224931
v -0.350000 -0.116667 -1.224931
v -0.350000 -0.350000 -0.833794
v -0.350000 -0.116667 -0.833794
v -0.350000 -0.350000 -0.442657
v -0.350000 -0.116667 -0.442657
v -0.350000 0.116667 -0.442657
v -1.081338 -0.116667 -0.442657
v -1.081338 0.116667 -0.442657
v -1.081338 -0.116667 -0.833794
v -1.081338 0.116667 -0.833794
v -0.350000 0.116667 -0.833794
v -0.350000 0.350000 -0.833794
v -0.350000 0.350000 -0.442657
v -0.350000 0.116667 -1.224931
v 0.350000 0.116667 0.357394
v -0.350000 0.116667 0.357394
v -0.350000 -0.116667 0.357394
v 1.255410 0.000000 0.185894
v 1.080410 -0.175000 -0.362702
v 1.430410 0.175000 -0.362702
v 1.080410 0.175000 -0.362702
v 1.430410 -0.175000 -0.362702
v 1.430410 -0.175000 -0.911298
v 1.255410 0.000000 -1.459894
v 1.080410 -0.175000 -0.911298
v 1.430410 0.175000 -0.911298
v 1.080410 0.175000 -0.911298
vn 0.9527 -0.0000 0.3039
vn -0.0000 -0.9527 0.3039
vn -0.0000 0.9527 0.3039
vn -0.9527 -0.0000 0.3039
vn -1.0000 -0.0000 -0.0000
vn -0.0000 -1.0000 -0.0000
vn -0.9527 -0.0000 -0.3039
vn -0.0000 -0.9527 -0.3039
vn -0.0000 0.9527 -0.3039
vn -0.0000 1.0000 -0.0000
vn 1.0000 -0.0000 -0.0000
vn 0.9527 -0.0000 -0.3039
vn -0.9764 -0.0000 0.2160
vn -0.0000 -0.9764 0.2160
vn -0.0000 0.9764 0.2160
vn 0.9764 -0.0000 0.2160
vn -0.0000 -0.0000 1.0000
vn -0.0000 -0.0000 -1.0000
vt 0.973779 0.862519
vt 0.866463 0.828285
vt 0.866463 0.896752
vt 0.872982 0.712183
vt 0.974361 0.677744
vt 0.872982 0.643305
vt 0.762396 0.909143
vt 0.661016 0.943581
vt 0.762396 0.978020
vt 0.761650 0.744301
vt 0.654335 0.778534
vt 0.761650 0.812768
vt 0.868966 0.812768
vt 0.868966 0.744301
vt 0.766306 0.643305
vt 0.766306 0.712183
vt 0.976281 0.778534
vt 0.654335 0.677744
vt 0.981042 0.943581
vt 0.869071 0.909143
vt 0.869071 0.978020
vt 0.759148 0.828285
vt 0.651833 0.862519
vt 0.759148 0.896752
vt 0.888157 0.623984
vt 0.865545 0.314645
vt 0.910769 0.314645
vt 0.656697 0.313989
vt 0.792331 0.314806
vt 0.722647 0.624221
vt 0.017799 0.310491
vt 0.153436 0.310491
vt 0.085617 0.620320
vt 0.537575 0.311688
vt 0.582799 0.311509
vt 0.561412 0.620935
vt 0.793719 0.084337
vt 0.793263 0.160014
vt 0.657629 0.159197
vt 0.536962 0.156769
vt 0.536662 0.081031
vt 0.491737 0.156949
vt 0.491437 0.081210
vt 0.264214 0.996416
vt 0.219126 0.855096
vt 0.264214 0.855096
vt 0.082025 0.996946
vt 0.006500 0.855522
vt 0.082025 0.855522
vt 0.168451 0.855096
vt 0.213539 0.996416
vt 0.168451 0.996416
vt 0.164640 0.996703
vt 0.089114 0.855279
vt 0.164640 0.855279
vt 0.581886 0.080852
vt 0.536362 0.005293
vt 0.627110 0.080673
vt 0.582186 0.156590
vt 0.017799 0.155696
vt 0.017799 0.080018
vt 0.153436 0.080018
vt 0.397417 0.046851
vt 0.397417 0.091939
vt 0.262153 0.091939
vt 0.865545 0.008247
vt 0.910769 0.008247
vt 0.910769 0.083986
vt 0.910769 0.159725
vt 0.955994 0.083986
vt 0.955994 0.159725
vt 0.865545 0.159725
vt 0.215192 0.691161
vt 0.260280 0.832481
vt 0.215192 0.832481
vt 0.001582 0.683836
vt 0.077107 0.825260
vt 0.001582 0.825260
vt 0.210575 0.831035
vt 0.165487 0.689715
vt 0.210575 0.689715
vt 0.157584 0.829807
vt 0.082003 0.688487
vt 0.157584 0.688487
vt 0.820320 0.159725
vt 0.865545 0.083986
vt 0.510522 0.963782
vt 0.510522 0.894904
vt 0.611902 0.929343
vt 0.616906 0.758026
vt 0.509591 0.792259
vt 0.509591 0.723792
vt 0.403679 0.809730
vt 0.403679 0.878196
vt 0.296364 0.843963
vt 0.401649 0.643305
vt 0.401649 0.712183
vt 0.300270 0.677744
vt 0.403847 0.894904
vt 0.403847 0.963782
vt 0.510995 0.878196
vt 0.510995 0.809730
vt 0.291876 0.929343
vt 0.618310 0.843963
vt 0.620296 0.677744
vt 0.508325 0.712183
vt 0.508325 0.643305
vt 0.402276 0.723792
vt 0.402276 0.792259
vt 0.294960 0.758026
vt 0.820320 0.314645
vt 0.955994 0.314645
vt 0.492351 0.311867
vt 0.628024 0.311330
vt 0.658085 0.083520
vt 0.658541 0.007844
vt 0.794175 0.008661
vt 0.627410 0.156411
vt 0.219126 0.996416
vt 0.006500 0.996946
vt 0.213539 0.855096
vt 0.089114 0.996703
vt 0.581586 0.005114
vt 0.626810 0.004935
vt 0.491138 0.005472
vt 0.153436 0.155696
vt 0.017799 0.004341
vt 0.153436 0.004341
vt 0.262153 0.046851
vt 0.262153 0.001763
vt 0.397417 0.001763
vt 0.397417 0.137027
vt 0.262153 0.137027
vt 0.820320 0.083986
vt 0.820320 0.008247
vt 0.955994 0.008247
vt 0.260280 0.691161
vt 0.077107 0.683836
vt 0.165487 0.831035
vt 0.082003 0.829807
s 0
usemtl マテリアル
f 1/1/1 2/2/1 4/3/1
f 2/4/2 1/5/2 5/6/2
f 3/7/3 1/8/3 4/9/3
f 5/10/4 1/11/4 3/12/4
f 5/10/5 9/13/5 6/14/5
f 2/4/6 6/15/6 8/16/6
f 7/17/7 6/14/7 9/13/7
f 7/18/8 8/16/8 6/15/8
f 7/19/9 9/20/9 10/21/9
f 3/7/10 10/21/10 9/20/10
f 8/22/11 4/3/11 2/2/11
f 8/22/12 7/23/12 10/24/12
f 11/25/13 50/26/13 51/27/13
f 12/28/14 15/29/14 11/30/14
f 13/31/15 14/32/15 11/33/15
f 16/34/16 49/35/16 11/36/16
f 18/37/6 17/38/6 38/39/6
f 49/35/11 16/34/11 19/40/11
f 21/41/11 17/42/11 18/43/11
f 22/44/17 20/45/17 19/46/17
f 24/47/6 19/48/6 21/49/6
f 25/50/18 21/51/18 26/52/18
f 23/53/10 26/54/10 20/55/10
f 26/56/11 21/41/11 32/57/11
f 27/58/11 20/59/11 26/56/11
f 29/60/10 27/61/10 46/62/10
f 31/63/18 32/64/18 35/65/18
f 48/66/5 35/67/5 37/68/5
f 39/69/5 36/70/5 38/71/5
f 40/72/5 39/69/5 51/27/5
f 42/73/17 39/74/17 40/75/17
f 41/76/6 37/77/6 39/78/6
f 43/79/18 45/80/18 37/81/18
f 44/82/10 40/83/10 45/84/10
f 47/85/5 45/86/5 40/72/5
f 53/87/2 56/88/2 52/89/2
f 52/90/4 55/91/4 53/92/4
f 56/93/1 54/94/1 52/95/1
f 54/96/3 55/97/3 52/98/3
f 57/99/6 53/87/6 59/100/6
f 60/101/11 56/93/11 57/102/11
f 58/103/8 57/99/8 59/100/8
f 58/104/12 60/101/12 57/102/12
f 58/105/9 61/106/9 60/107/9
f 61/106/10 54/96/10 60/107/10
f 55/91/5 59/108/5 53/92/5
f 59/108/7 61/109/7 58/110/7
f 5/10/5 3/12/5 9/13/5
f 2/4/6 5/6/6 6/15/6
f 3/7/10 4/9/10 10/21/10
f 8/22/11 10/24/11 4/3/11
f 11/25/13 14/111/13 50/26/13
f 51/27/13 12/112/13 11/25/13
f 11/36/16 15/113/16 16/34/16
f 49/35/16 13/114/16 11/36/16
f 36/115/6 34/116/6 33/117/6
f 36/115/6 33/117/6 18/37/6
f 15/29/6 12/28/6 38/39/6
f 38/39/6 36/115/6 18/37/6
f 17/38/6 15/29/6 38/39/6
f 20/59/11 29/118/11 13/114/11
f 20/59/11 13/114/11 49/35/11
f 15/113/11 17/42/11 19/40/11
f 19/40/11 20/59/11 49/35/11
f 16/34/11 15/113/11 19/40/11
f 21/41/11 19/40/11 17/42/11
f 22/44/17 23/119/17 20/45/17
f 24/47/6 22/120/6 19/48/6
f 25/50/18 24/121/18 21/51/18
f 23/53/10 25/122/10 26/54/10
f 31/123/11 28/124/11 27/58/11
f 31/123/11 27/58/11 26/56/11
f 18/43/11 33/125/11 32/57/11
f 32/57/11 31/123/11 26/56/11
f 21/41/11 18/43/11 32/57/11
f 27/58/11 29/118/11 20/59/11
f 47/126/10 14/32/10 13/31/10
f 47/126/10 13/31/10 29/60/10
f 28/127/10 30/128/10 46/62/10
f 46/62/10 47/126/10 29/60/10
f 27/61/10 28/127/10 46/62/10
f 48/129/18 30/130/18 28/131/18
f 48/129/18 28/131/18 31/63/18
f 33/132/18 34/133/18 35/65/18
f 35/65/18 48/129/18 31/63/18
f 32/64/18 33/132/18 35/65/18
f 45/86/5 46/134/5 30/135/5
f 45/86/5 30/135/5 48/66/5
f 34/136/5 36/70/5 37/68/5
f 37/68/5 45/86/5 48/66/5
f 35/67/5 34/136/5 37/68/5
f 39/69/5 37/68/5 36/70/5
f 50/26/5 14/111/5 47/85/5
f 50/26/5 47/85/5 40/72/5
f 38/71/5 12/112/5 51/27/5
f 51/27/5 50/26/5 40/72/5
f 39/69/5 38/71/5 51/27/5
f 42/73/17 41/137/17 39/74/17
f 41/76/6 43/138/6 37/77/6
f 43/79/18 44/139/18 45/80/18
f 44/82/10 42/140/10 40/83/10
f 47/85/5 46/134/5 45/86/5
f 57/99/6 56/88/6 53/87/6
f 60/101/11 54/94/11 56/93/11
f 61/106/10 55/97/10 54/96/10
f 55/91/5 61/109/5 59/108/5
