# Blender 4.4.0
# www.blender.org
mtllib rock2.mtl
o 立方体
v -0.250121 -0.149200 -0.566340
v -0.239470 -0.142847 0.542224
v -0.199442 0.118970 -0.451590
v -0.265002 0.158077 0.600035
v 0.199276 -0.118871 -0.451214
v 0.263180 -0.156990 0.595909
v 0.265540 0.158398 -0.601253
v 0.243411 0.145198 0.551147
v -0.311015 0.000000 -0.704219
v -0.233447 -0.139254 -0.000000
v -0.336585 -0.000000 0.762117
v -0.312397 0.186348 0.000000
v 0.000000 0.160709 -0.610026
v -0.000000 0.242493 0.920467
v 0.253286 0.151088 0.000000
v 0.384543 0.000000 -0.870708
v 0.307828 -0.000000 0.697004
v 0.283496 -0.169109 -0.000000
v -0.000000 -0.196197 -0.744733
v 0.000000 -0.272070 1.032734
v -0.419900 -0.000000 0.000000
v 0.000000 0.232927 0.000000
v 0.387589 -0.000000 0.000000
v -0.000000 -0.293064 -0.000000
v -0.000000 0.000000 -1.031794
v 0.000000 -0.000000 0.995069
vn -0.8679 -0.4782 -0.1342
vn -0.5983 -0.8011 -0.0120
vn -0.8626 0.4976 0.0916
vn -0.6170 0.7812 -0.0954
vn -0.2884 0.9509 -0.1126
vn -0.1472 0.9874 0.0582
vn 0.3074 0.9514 0.0157
vn 0.0083 0.9999 0.0123
vn 0.7972 0.6037 -0.0028
vn 0.7472 0.6642 0.0205
vn 0.8509 -0.5238 0.0397
vn 0.5370 -0.8436 -0.0019
vn 0.4983 -0.8597 -0.1118
vn 0.4004 -0.9158 0.0323
vn -0.5501 -0.8350 -0.0116
vn -0.2681 -0.9553 -0.1243
vn -0.3068 0.9061 -0.2912
vn 0.0199 0.9343 -0.3560
vn 0.7550 -0.5413 -0.3700
vn -0.5304 -0.6819 -0.5036
vn 0.4845 0.7176 0.5004
vn -0.7807 0.1837 0.5973
vn -0.8903 0.0624 0.4511
vn 0.5805 -0.5511 0.5995
vn -0.5981 -0.8008 0.0317
vn -0.7600 -0.6446 0.0831
vn -0.8668 0.4897 0.0948
vn -0.8316 0.4798 -0.2796
vn -0.1450 0.9727 -0.1814
vn -0.2926 0.9562 -0.0099
vn 0.3584 0.9335 -0.0097
vn 0.3055 0.9456 -0.1119
vn 0.7472 0.6642 0.0233
vn 0.8687 0.4853 0.0994
vn 0.9360 -0.3352 0.1071
vn 0.8322 -0.5122 -0.2124
vn 0.3945 -0.9023 -0.1741
vn 0.4260 -0.9045 0.0184
vn -0.5025 -0.8644 0.0176
vn -0.5499 -0.8346 0.0308
vn -0.4316 0.8430 -0.3212
vn 0.1830 0.8807 -0.4369
vn 0.0970 -0.9680 -0.2315
vn -0.4870 -0.7211 -0.4928
vn 0.8431 0.1581 0.5140
vn -0.3827 0.7402 0.5529
vn -0.2946 -0.8556 0.4257
vn 0.8456 0.0732 0.5288
vt 0.375000 0.000000
vt 0.500000 0.125000
vt 0.375000 0.125000
vt 0.625000 0.000000
vt 0.500000 0.000000
vt 0.625000 0.250000
vt 0.500000 0.250000
vt 0.375000 0.250000
vt 0.500000 0.375000
vt 0.375000 0.375000
vt 0.625000 0.500000
vt 0.500000 0.500000
vt 0.375000 0.500000
vt 0.500000 0.625000
vt 0.375000 0.625000
vt 0.625000 0.750000
vt 0.500000 0.750000
vt 0.375000 0.750000
vt 0.500000 0.875000
vt 0.375000 0.875000
vt 0.625000 1.000000
vt 0.500000 1.000000
vt 0.375000 1.000000
vt 0.125000 0.500000
vt 0.250000 0.625000
vt 0.125000 0.625000
vt 0.250000 0.500000
vt 0.250000 0.750000
vt 0.125000 0.750000
vt 0.750000 0.625000
vt 0.625000 0.625000
vt 0.875000 0.500000
vt 0.750000 0.500000
vt 0.875000 0.750000
vt 0.750000 0.750000
vt 0.625000 0.125000
vt 0.625000 0.375000
vt 0.625000 0.875000
vt 0.875000 0.625000
s 0
usemtl マテリアル
f 1/1/1 21/2/1 9/3/1
f 2/4/2 21/2/2 10/5/2
f 21/2/3 4/6/3 12/7/3
f 21/2/4 3/8/4 9/3/4
f 3/8/5 22/9/5 13/10/5
f 4/6/6 22/9/6 12/7/6
f 22/9/7 8/11/7 15/12/7
f 13/10/8 15/12/8 7/13/8
f 7/13/9 23/14/9 16/15/9
f 8/11/10 23/14/10 15/12/10
f 23/14/11 6/16/11 18/17/11
f 23/14/12 5/18/12 16/15/12
f 5/18/13 24/19/13 19/20/13
f 6/16/14 24/19/14 18/17/14
f 24/19/15 2/21/15 10/22/15
f 24/19/16 1/23/16 19/20/16
f 3/24/17 25/25/17 9/26/17
f 7/13/18 25/25/18 13/27/18
f 25/25/19 5/18/19 19/28/19
f 25/25/20 1/29/20 9/26/20
f 8/11/21 26/30/21 17/31/21
f 4/32/22 26/30/22 14/33/22
f 26/30/23 2/34/23 20/35/23
f 26/30/24 6/16/24 17/31/24
f 1/1/25 10/5/25 21/2/25
f 2/4/26 11/36/26 21/2/26
f 21/2/27 11/36/27 4/6/27
f 21/2/28 12/7/28 3/8/28
f 3/8/29 12/7/29 22/9/29
f 4/6/30 14/37/30 22/9/30
f 22/9/31 14/37/31 8/11/31
f 13/10/32 22/9/32 15/12/32
f 7/13/33 15/12/33 23/14/33
f 8/11/34 17/31/34 23/14/34
f 23/14/35 17/31/35 6/16/35
f 23/14/36 18/17/36 5/18/36
f 5/18/37 18/17/37 24/19/37
f 6/16/38 20/38/38 24/19/38
f 24/19/39 20/38/39 2/21/39
f 24/19/40 10/22/40 1/23/40
f 3/24/41 13/27/41 25/25/41
f 7/13/42 16/15/42 25/25/42
f 25/25/43 16/15/43 5/18/43
f 25/25/44 19/28/44 1/29/44
f 8/11/45 14/33/45 26/30/45
f 4/32/46 11/39/46 26/30/46
f 26/30/47 11/39/47 2/34/47
f 26/30/48 20/35/48 6/16/48
